<?xml version="1.0" standalone="no"?>
<!DOCTYPE svg PUBLIC "-//W3C//DTD SVG 20010904//EN"
 "http://www.w3.org/TR/2001/REC-SVG-20010904/DTD/svg10.dtd">
<svg version="1.0" xmlns="http://www.w3.org/2000/svg"
 width="200.000000pt" height="200.000000pt" viewBox="0 0 200.000000 200.000000"
 preserveAspectRatio="xMidYMid meet">

<g transform="translate(0.000000,200.000000) scale(0.100000,-0.100000)"
fill="#00529b" stroke="none">
<path d="M0 1000 l0 -1000 1000 0 1000 0 0 1000 0 1000 -1000 0 -1000 0 0
-1000z m925 779 c-153 -31 -275 -94 -275 -142 0 -11 -20 -62 -44 -111 -25 -50
-50 -118 -57 -151 -11 -53 -10 -65 6 -99 26 -54 21 -90 -21 -159 -27 -46 -37
-74 -38 -107 l-1 -45 53 -3 52 -3 0 -38 c0 -23 6 -44 15 -51 11 -9 13 -16 5
-24 -16 -16 -12 -44 9 -56 17 -9 19 -18 14 -85 -5 -63 -3 -75 11 -81 31 -12 5
-24 -52 -24 -37 0 -66 6 -81 16 -22 16 -23 22 -18 91 5 66 4 74 -15 84 -16 9
-19 17 -14 44 4 19 2 36 -4 40 -5 3 -10 21 -10 40 0 36 -13 46 -53 38 -69 -13
-74 46 -12 163 25 46 45 91 45 98 0 7 -9 34 -20 58 -17 40 -18 53 -9 104 5 33
30 100 55 150 24 49 44 100 44 111 0 22 42 63 89 87 82 42 230 74 346 74 l70
0 -90 -19z m55 -1181 c27 -29 38 -73 45 -188 5 -72 4 -99 -7 -111 -14 -18
-119 -91 -123 -87 -2 2 2 27 8 56 9 43 8 64 -6 116 -9 36 -17 79 -17 98 -1 40
-25 111 -40 116 -5 2 -10 8 -10 13 0 5 29 9 65 9 53 0 68 -4 85 -22z"/>
</g>
</svg>
